<svg width="303" height="452" viewBox="0 0 303 452" fill="none" xmlns="http://www.w3.org/2000/svg">
<g filter="url(#filter0_d_1002_166)">
<rect x="4" y="7" width="295" height="437" rx="15" fill="url(#paint0_linear_1002_166)"/>
</g>
<path d="M152.597 172.785L152.219 173.312L151.841 172.785C150.401 170.776 148.054 169.465 145.397 169.465C141.016 169.465 137.465 173.016 137.465 177.397C137.465 178.014 137.544 178.615 137.679 179.198L137.683 179.214L137.686 179.23C138.248 182.724 140.487 186.364 143.335 189.408C146.128 192.392 149.451 194.744 152.219 195.792C154.986 194.744 158.31 192.392 161.102 189.408C163.951 186.364 166.189 182.724 166.75 179.23L166.753 179.213L166.757 179.197C166.894 178.615 166.972 178.014 166.972 177.397C166.972 173.016 163.421 169.465 159.042 169.465C156.384 169.465 154.038 170.776 152.597 172.785Z" fill="white" stroke="url(#paint1_linear_1002_166)" stroke-width="0.93046"/>
<path d="M151.841 279.504L152.219 278.977L152.597 279.504C154.037 281.512 156.384 282.823 159.041 282.823C163.421 282.823 166.972 279.272 166.972 274.891C166.972 274.274 166.894 273.673 166.758 273.09L166.755 273.074L166.752 273.058C166.189 269.564 163.951 265.924 161.103 262.881C158.31 259.897 154.987 257.545 152.219 256.496C149.451 257.545 146.128 259.897 143.335 262.881C140.487 265.924 138.249 269.564 137.687 273.058L137.685 273.075L137.681 273.091C137.544 273.674 137.465 274.274 137.465 274.891C137.465 279.272 141.016 282.823 145.396 282.823C148.054 282.823 150.4 281.512 151.841 279.504Z" fill="white" stroke="url(#paint2_linear_1002_166)" stroke-width="0.93046"/>
<g filter="url(#filter1_d_1002_166)">
<circle cx="152" cy="73" r="49" fill="url(#paint3_linear_1002_166)"/>
</g>
<g filter="url(#filter2_d_1002_166)">
<circle cx="155" cy="374" r="49" fill="url(#paint4_linear_1002_166)"/>
</g>
<path d="M166.183 173.754L295.089 10.1974" stroke="white" stroke-opacity="0.6" stroke-width="2"/>
<path d="M9.90588 440.557L138.812 277" stroke="white" stroke-opacity="0.6" stroke-width="2"/>
<path d="M8 12.1014L137 174" stroke="white" stroke-opacity="0.6" stroke-width="2"/>
<path d="M164 278.426L293 440.325" stroke="white" stroke-opacity="0.6" stroke-width="2"/>
<defs>
<filter id="filter0_d_1002_166" x="0" y="7" width="303" height="445" filterUnits="userSpaceOnUse" color-interpolation-filters="sRGB">
<feFlood flood-opacity="0" result="BackgroundImageFix"/>
<feColorMatrix in="SourceAlpha" type="matrix" values="0 0 0 0 0 0 0 0 0 0 0 0 0 0 0 0 0 0 127 0" result="hardAlpha"/>
<feOffset dy="4"/>
<feGaussianBlur stdDeviation="2"/>
<feColorMatrix type="matrix" values="0 0 0 0 0 0 0 0 0 0 0 0 0 0 0 0 0 0 0.25 0"/>
<feBlend mode="normal" in2="BackgroundImageFix" result="effect1_dropShadow_1002_166"/>
<feBlend mode="normal" in="SourceGraphic" in2="effect1_dropShadow_1002_166" result="shape"/>
</filter>
<filter id="filter1_d_1002_166" x="101.727" y="24" width="100.545" height="100.545" filterUnits="userSpaceOnUse" color-interpolation-filters="sRGB">
<feFlood flood-opacity="0" result="BackgroundImageFix"/>
<feColorMatrix in="SourceAlpha" type="matrix" values="0 0 0 0 0 0 0 0 0 0 0 0 0 0 0 0 0 0 127 0" result="hardAlpha"/>
<feOffset dy="1.27273"/>
<feGaussianBlur stdDeviation="0.636364"/>
<feColorMatrix type="matrix" values="0 0 0 0 0 0 0 0 0 0 0 0 0 0 0 0 0 0 0.25 0"/>
<feBlend mode="normal" in2="BackgroundImageFix" result="effect1_dropShadow_1002_166"/>
<feBlend mode="normal" in="SourceGraphic" in2="effect1_dropShadow_1002_166" result="shape"/>
</filter>
<filter id="filter2_d_1002_166" x="104.727" y="325" width="100.545" height="100.545" filterUnits="userSpaceOnUse" color-interpolation-filters="sRGB">
<feFlood flood-opacity="0" result="BackgroundImageFix"/>
<feColorMatrix in="SourceAlpha" type="matrix" values="0 0 0 0 0 0 0 0 0 0 0 0 0 0 0 0 0 0 127 0" result="hardAlpha"/>
<feOffset dy="1.27273"/>
<feGaussianBlur stdDeviation="0.636364"/>
<feColorMatrix type="matrix" values="0 0 0 0 0 0 0 0 0 0 0 0 0 0 0 0 0 0 0.25 0"/>
<feBlend mode="normal" in2="BackgroundImageFix" result="effect1_dropShadow_1002_166"/>
<feBlend mode="normal" in="SourceGraphic" in2="effect1_dropShadow_1002_166" result="shape"/>
</filter>
<linearGradient id="paint0_linear_1002_166" x1="4" y1="7" x2="414.456" y2="293.547" gradientUnits="userSpaceOnUse">
<stop stop-color="#E06C88"/>
<stop offset="1" stop-color="#B73058"/>
</linearGradient>
<linearGradient id="paint1_linear_1002_166" x1="152.219" y1="196.288" x2="152.219" y2="169" gradientUnits="userSpaceOnUse">
<stop stop-color="#B73058"/>
<stop offset="1" stop-color="#FF99AC"/>
</linearGradient>
<linearGradient id="paint2_linear_1002_166" x1="152.219" y1="256" x2="152.219" y2="283.288" gradientUnits="userSpaceOnUse">
<stop stop-color="#B73058"/>
<stop offset="1" stop-color="#FF99AC"/>
</linearGradient>
<linearGradient id="paint3_linear_1002_166" x1="124.477" y1="19.0682" x2="179.682" y2="115.318" gradientUnits="userSpaceOnUse">
<stop stop-color="#C4C4C4"/>
<stop offset="0.938276" stop-color="white"/>
</linearGradient>
<linearGradient id="paint4_linear_1002_166" x1="127.477" y1="320.068" x2="182.682" y2="416.318" gradientUnits="userSpaceOnUse">
<stop stop-color="#C4C4C4"/>
<stop offset="0.938276" stop-color="white"/>
</linearGradient>
</defs>
</svg>
