<svg width="316" height="316" viewBox="0 0 316 316" fill="none" xmlns="http://www.w3.org/2000/svg">
<g filter="url(#filter0_d_1_681)">
<circle cx="158" cy="154" r="154" fill="url(#paint0_linear_1_681)"/>
</g>
<path d="M195.376 55.7227L195.188 55.9844L195 55.7226C194.285 54.7252 193.119 54.0739 191.8 54.0739C189.624 54.0739 187.86 55.8377 187.86 58.0136C187.86 58.3202 187.899 58.6187 187.966 58.9084L187.968 58.9162L187.969 58.9241C188.249 60.6596 189.361 62.4676 190.776 63.9794C192.163 65.4617 193.813 66.6299 195.188 67.1507C196.563 66.6298 198.214 65.4617 199.601 63.9794C201.015 62.4676 202.127 60.6596 202.406 58.9241L202.407 58.9159L202.409 58.9078C202.478 58.6185 202.516 58.3202 202.516 58.0136C202.516 55.8377 200.753 54.0739 198.577 54.0739C197.257 54.0739 196.092 54.7252 195.376 55.7227Z" fill="#B73058" stroke="url(#paint1_linear_1_681)" stroke-width="0.462167"/>
<path d="M158.256 85.7038L158.069 85.9655L157.881 85.7037C157.166 84.7063 156 84.0549 154.68 84.0549C152.504 84.0549 150.74 85.8188 150.74 87.9947C150.74 88.3013 150.779 88.5998 150.847 88.8894L150.849 88.8972L150.85 88.9051C151.13 90.6407 152.241 92.4487 153.656 93.9605C155.043 95.4428 156.694 96.6109 158.069 97.1317C159.443 96.6109 161.094 95.4428 162.481 93.9605C163.896 92.4487 165.008 90.6407 165.287 88.9052L165.288 88.897L165.29 88.8889C165.358 88.5996 165.397 88.3013 165.397 87.9947C165.397 85.8188 163.633 84.0549 161.458 84.0549C160.138 84.0549 158.972 84.7062 158.256 85.7038Z" fill="#B73058" stroke="url(#paint2_linear_1_681)" stroke-width="0.462167"/>
<path d="M256.052 144.952L255.864 145.214L255.677 144.952C254.961 143.955 253.796 143.303 252.476 143.303C250.3 143.303 248.536 145.067 248.536 147.243C248.536 147.55 248.575 147.848 248.643 148.138L248.644 148.146L248.646 148.154C248.925 149.889 250.037 151.697 251.452 153.209C252.839 154.691 254.49 155.859 255.864 156.38C257.239 155.859 258.89 154.691 260.277 153.209C261.692 151.697 262.803 149.889 263.082 148.154L263.084 148.145L263.086 148.137C263.154 147.848 263.193 147.55 263.193 147.243C263.193 145.067 261.429 143.303 259.253 143.303C257.933 143.303 256.768 143.955 256.052 144.952Z" fill="#B73058" stroke="url(#paint3_linear_1_681)" stroke-width="0.462167"/>
<path d="M195.376 229.899L195.188 230.16L195 229.899C194.285 228.901 193.119 228.25 191.8 228.25C189.624 228.25 187.86 230.014 187.86 232.19C187.86 232.496 187.899 232.795 187.966 233.084L187.968 233.092L187.969 233.1C188.249 234.836 189.361 236.644 190.776 238.155C192.163 239.638 193.813 240.806 195.188 241.327C196.563 240.806 198.214 239.638 199.601 238.155C201.015 236.644 202.127 234.836 202.406 233.1L202.407 233.092L202.409 233.084C202.478 232.795 202.516 232.496 202.516 232.19C202.516 230.014 200.753 228.25 198.577 228.25C197.257 228.25 196.092 228.901 195.376 229.899Z" fill="#B73058" stroke="url(#paint4_linear_1_681)" stroke-width="0.462167"/>
<path d="M74.7377 92.8421L74.5499 93.1039L74.3621 92.8421C73.6468 91.8446 72.4811 91.1933 71.1614 91.1933C68.9855 91.1933 67.2217 92.9572 67.2217 95.1331C67.2217 95.4397 67.2606 95.7382 67.3281 96.0278L67.3299 96.0356L67.3312 96.0435C67.6107 97.7791 68.7226 99.587 70.1373 101.099C71.5244 102.581 73.1751 103.749 74.5499 104.27C75.9245 103.749 77.5754 102.581 78.9625 101.099C80.3772 99.587 81.4889 97.7791 81.7678 96.0436L81.7691 96.0353L81.7711 96.0272C81.8393 95.738 81.8782 95.4397 81.8782 95.1331C81.8782 92.9572 80.1143 91.1933 77.9388 91.1933C76.6188 91.1933 75.4534 91.8446 74.7377 92.8421Z" fill="#B73058" stroke="url(#paint5_linear_1_681)" stroke-width="0.462167"/>
<path d="M74.7377 197.062L74.5499 197.324L74.3621 197.062C73.6468 196.065 72.4811 195.413 71.1614 195.413C68.9855 195.413 67.2217 197.177 67.2217 199.353C67.2217 199.66 67.2606 199.958 67.3281 200.248L67.3299 200.256L67.3312 200.264C67.6107 201.999 68.7226 203.807 70.1373 205.319C71.5244 206.801 73.1751 207.969 74.5499 208.49C75.9245 207.969 77.5754 206.801 78.9625 205.319C80.3772 203.807 81.4889 201.999 81.7678 200.264L81.7691 200.255L81.7711 200.247C81.8393 199.958 81.8782 199.66 81.8782 199.353C81.8782 197.177 80.1143 195.413 77.9388 195.413C76.6188 195.413 75.4534 196.065 74.7377 197.062Z" fill="#B73058" stroke="url(#paint6_linear_1_681)" stroke-width="0.462167"/>
<path d="M113.999 55.7227L113.811 55.9844L113.623 55.7226C112.908 54.7252 111.742 54.0739 110.422 54.0739C108.247 54.0739 106.483 55.8377 106.483 58.0136C106.483 58.3202 106.522 58.6187 106.589 58.9084L106.591 58.9162L106.592 58.9241C106.872 60.6596 107.984 62.4676 109.398 63.9794C110.785 65.4617 112.436 66.6299 113.811 67.1507C115.186 66.6298 116.836 65.4617 118.223 63.9794C119.638 62.4676 120.75 60.6596 121.029 58.9241L121.03 58.9159L121.032 58.9078C121.1 58.6185 121.139 58.3202 121.139 58.0136C121.139 55.8377 119.375 54.0739 117.2 54.0739C115.88 54.0739 114.714 54.7252 113.999 55.7227Z" fill="#FF99AC" stroke="url(#paint7_linear_1_681)" stroke-width="0.462167"/>
<path d="M59.7471 144.952L59.5593 145.214L59.3715 144.952C58.6562 143.955 57.4905 143.303 56.1708 143.303C53.9949 143.303 52.2311 145.067 52.2311 147.243C52.2311 147.55 52.27 147.848 52.3375 148.138L52.3393 148.146L52.3406 148.154C52.6201 149.889 53.732 151.697 55.1467 153.209C56.5338 154.691 58.1845 155.859 59.5593 156.38C60.9339 155.859 62.5848 154.691 63.9719 153.209C65.3866 151.697 66.4983 149.889 66.7772 148.154L66.7785 148.145L66.7805 148.137C66.8487 147.848 66.8876 147.55 66.8876 147.243C66.8876 145.067 65.1237 143.303 62.9482 143.303C61.6282 143.303 60.4628 143.955 59.7471 144.952Z" fill="#FF99AC" stroke="url(#paint8_linear_1_681)" stroke-width="0.462167"/>
<path d="M113.999 229.899L113.811 230.16L113.623 229.899C112.908 228.901 111.742 228.25 110.422 228.25C108.247 228.25 106.483 230.014 106.483 232.19C106.483 232.496 106.522 232.795 106.589 233.084L106.591 233.092L106.592 233.1C106.872 234.836 107.984 236.644 109.398 238.155C110.785 239.638 112.436 240.806 113.811 241.327C115.186 240.806 116.836 239.638 118.223 238.155C119.638 236.644 120.75 234.836 121.029 233.1L121.03 233.092L121.032 233.084C121.1 232.795 121.139 232.496 121.139 232.19C121.139 230.014 119.375 228.25 117.2 228.25C115.88 228.25 114.714 228.901 113.999 229.899Z" fill="#FF99AC" stroke="url(#paint9_linear_1_681)" stroke-width="0.462167"/>
<path d="M158.97 252.028L158.783 252.289L158.595 252.028C157.879 251.03 156.714 250.379 155.394 250.379C153.218 250.379 151.454 252.143 151.454 254.319C151.454 254.625 151.493 254.924 151.561 255.213L151.563 255.221L151.564 255.229C151.843 256.965 152.955 258.773 154.37 260.284C155.757 261.767 157.408 262.935 158.783 263.456C160.157 262.935 161.808 261.767 163.195 260.284C164.61 258.773 165.722 256.965 166 255.229L166.002 255.221L166.004 255.213C166.072 254.924 166.111 254.625 166.111 254.319C166.111 252.143 164.347 250.379 162.172 250.379C160.851 250.379 159.686 251.03 158.97 252.028Z" fill="#FF99AC" stroke="url(#paint10_linear_1_681)" stroke-width="0.462167"/>
<path d="M241.062 197.062L240.874 197.324L240.686 197.062C239.971 196.065 238.805 195.413 237.485 195.413C235.309 195.413 233.546 197.177 233.546 199.353C233.546 199.66 233.584 199.958 233.652 200.248L233.654 200.256L233.655 200.264C233.935 201.999 235.046 203.807 236.461 205.319C237.848 206.801 239.499 207.969 240.874 208.49C242.248 207.969 243.899 206.801 245.286 205.319C246.701 203.807 247.813 201.999 248.092 200.264L248.093 200.255L248.095 200.247C248.163 199.958 248.202 199.66 248.202 199.353C248.202 197.177 246.438 195.413 244.263 195.413C242.943 195.413 241.777 196.065 241.062 197.062Z" fill="#FF99AC" stroke="url(#paint11_linear_1_681)" stroke-width="0.462167"/>
<path d="M241.062 92.8421L240.874 93.1039L240.686 92.8421C239.971 91.8446 238.805 91.1933 237.485 91.1933C235.309 91.1933 233.546 92.9572 233.546 95.1331C233.546 95.4397 233.584 95.7382 233.652 96.0278L233.654 96.0356L233.655 96.0435C233.935 97.7791 235.046 99.587 236.461 101.099C237.848 102.581 239.499 103.749 240.874 104.27C242.248 103.749 243.899 102.581 245.286 101.099C246.701 99.587 247.813 97.7791 248.092 96.0436L248.093 96.0353L248.095 96.0272C248.163 95.738 248.202 95.4397 248.202 95.1331C248.202 92.9572 246.438 91.1933 244.263 91.1933C242.943 91.1933 241.777 91.8446 241.062 92.8421Z" fill="#FF99AC" stroke="url(#paint12_linear_1_681)" stroke-width="0.462167"/>
<rect x="73.415" y="217.311" width="64.9591" height="64.9591" rx="6.49591" fill="url(#paint13_linear_1_681)"/>
<path d="M123.758 228.062C123.758 227.147 124.625 226.406 125.695 226.406C126.764 226.406 127.631 227.147 127.631 228.062C127.631 228.977 127.631 229.718 127.631 229.718H123.758V228.062V228.062Z" fill="#B73058"/>
<path d="M127.631 237.142C127.631 238.386 128.177 240.242 128.85 241.287L129.985 243.05C130.658 244.096 131.204 245.952 131.204 247.195V267.334C131.204 268.577 130.196 269.586 128.953 269.586H125.862H125.528H122.437C121.193 269.586 120.186 268.577 120.186 267.334V247.196C120.186 245.952 120.732 244.097 121.405 243.051L122.54 241.287C123.214 240.242 123.759 238.386 123.759 237.143V230.253H127.632V237.142H127.631ZM121.721 248.817V260.905H129.668V248.817H121.721Z" fill="#B73058"/>
<path d="M78.9366 248.478C78.9366 245.257 86.0034 242.645 94.7207 242.645C103.438 242.645 110.505 245.257 110.505 248.478C110.505 250.988 106.213 253.128 100.193 253.95L94.7206 248.478L89.2483 253.95C83.2284 253.128 78.9366 250.988 78.9366 248.478V248.478Z" fill="#B73058"/>
<path d="M93.7951 252.021V261.069L90.1738 264.69V255.643L90.5572 255.259L93.7951 252.021Z" fill="#B73058"/>
<path d="M99.2675 255.643V264.69L95.6461 261.069V252.021L98.8842 255.259L99.2675 255.643Z" fill="#B73058"/>
<path d="M88.3228 255.686V259.92C82.5337 259.016 79.3294 257.087 78.9366 255.468V252.122C79.4648 252.587 80.1343 253.048 80.9794 253.489C82.8763 254.477 85.4044 255.232 88.3228 255.686Z" fill="#B73058"/>
<path d="M88.3228 261.792V265.476C82.7935 264.569 78.9366 262.523 78.9366 260.143V258.456C79.3888 258.817 79.9416 259.178 80.618 259.531C82.5819 260.554 85.2382 261.333 88.3228 261.792Z" fill="#B73058"/>
<path d="M110.505 258.456V260.143C110.505 262.523 106.648 264.569 101.118 265.476V261.792C104.203 261.333 106.859 260.554 108.823 259.531C109.5 259.178 110.052 258.817 110.505 258.456V258.456Z" fill="#B73058"/>
<path d="M110.505 252.122V255.468C110.112 257.087 106.908 259.016 101.118 259.92V255.686C104.037 255.232 106.565 254.477 108.462 253.489C109.307 253.048 109.977 252.587 110.505 252.122V252.122Z" fill="#B73058"/>
<rect x="61.9937" y="31" width="64.9591" height="64.9591" rx="6.49591" fill="url(#paint14_linear_1_681)"/>
<path d="M98.4019 63.6772C100.447 66.27 101.678 69.5327 101.678 73.0831V73.8505H100.91H100.444C100.651 74.2441 100.78 74.6854 100.78 75.1595C100.78 75.6567 100.64 76.118 100.414 76.5246H100.911H101.678V77.292C101.678 79.8464 101.032 81.6918 99.9557 83.03L100.012 83.7252H113.778L115.991 53.6374H117.244V51.0884H107.961C108.007 46.3463 104.542 42.4467 99.7048 42.4214C98.6529 42.416 98.6529 44.0474 99.7048 44.0527C103.673 44.0734 106.361 47.2356 106.33 51.0884H96.3393V53.6374H97.5954L98.4019 63.6772Z" fill="#B73058"/>
<path d="M99.2182 73.8503H73.3654C73.0699 74.2079 72.8851 74.6599 72.8851 75.1593C72.8851 75.685 73.0877 76.16 73.4115 76.5244H99.4323H99.4853C99.8091 76.16 100.012 75.685 100.012 75.1593C100.012 74.6598 99.8267 74.207 99.5314 73.8503H99.2182Z" fill="#B73058"/>
<path d="M86.4484 85.7693C92.5203 85.7693 97.7151 85.4823 99.8583 81.836C100.534 80.6865 100.909 79.2063 100.909 77.2919H99.7899H99.4944H99.1277H73.7699H73.1069H71.9874C71.9874 85.279 78.4621 85.7693 86.4484 85.7693Z" fill="#B73058"/>
<path d="M73.667 73.0831H99.1561H99.2297H99.8582H100.91C100.91 70.1411 100.026 67.4087 98.5176 65.1251C95.9301 61.2087 91.4935 58.622 86.4483 58.622C78.4613 58.622 71.9874 65.0967 71.9874 73.0831H73.0393H73.667Z" fill="#B73058"/>
<rect x="214.041" y="81.6824" width="64.9591" height="64.9591" rx="6.49591" fill="url(#paint15_linear_1_681)"/>
<path d="M245.504 103.691L244.257 111.997L231.887 124.367L233.45 125.931L245.821 113.56L254.128 112.314L245.504 103.691Z" fill="#B73058"/>
<path d="M268.932 103.366C268.387 99.7391 264.994 97.2307 261.367 97.7747L259.809 98.0084L260.043 96.4509C260.307 94.6936 259.87 92.9386 258.814 91.5094C255.545 87.0675 248.526 88.3698 247.057 93.672C247.78 94.3957 261.1 107.716 262.244 108.86H262.244C262.718 109.334 263.671 110.287 264.144 110.76C267.33 109.873 269.435 106.719 268.932 103.366V103.366Z" fill="#B73058"/>
<path d="M259.525 109.268C258.131 107.874 247.718 97.4621 246.605 96.3484L245.911 100.971C248.498 103.557 254.26 109.319 256.847 111.906L261.47 111.213C260.985 110.728 260.01 109.753 259.525 109.268V109.268Z" fill="#B73058"/>
<path d="M239.731 125.461C239.729 125.143 239.726 124.832 239.722 124.53C239.669 120.511 239.446 117.927 239.304 116.269C239.302 116.238 239.3 116.207 239.295 116.178L239.228 115.391C239.226 115.373 239.222 115.351 239.222 115.338C239.133 114.435 238.481 112.007 237.657 108.935C236.49 104.591 234.536 97.3155 234.98 96.4307C235.883 95.2903 235.46 94.1521 235.014 93.5697C235.067 93.1473 235.149 92.1936 234.98 91.3467C234.778 90.3485 232.442 90.2485 232.419 90.2485C232.353 90.2485 232.293 90.2529 232.241 90.2574C232.188 90.2529 232.128 90.2485 232.064 90.2485C232.039 90.2485 229.705 90.3485 229.505 91.3467C229.336 92.1936 229.418 93.1473 229.472 93.5697C229.025 94.1521 228.6 95.2881 229.494 96.4152C229.949 97.3155 227.995 104.591 226.828 108.937C226.004 112.007 225.352 114.435 225.263 115.34C225.261 115.355 225.257 115.38 225.257 115.391L225.19 116.178C225.188 116.207 225.186 116.24 225.181 116.269C225.037 117.927 224.817 120.504 224.761 124.53C224.756 124.834 224.754 125.141 224.752 125.461C224.739 127.369 224.761 129.567 224.843 132.124C224.888 132.595 225.017 134.009 230.977 134.344C230.977 134.344 231.83 134.407 232.23 134.393C232.653 134.404 233.531 134.342 233.531 134.342C239.468 134.004 239.597 132.593 239.644 132.095C239.722 129.552 239.746 127.362 239.731 125.461ZM230.385 91.609C230.534 91.4422 231.443 91.1866 232.146 91.1866C232.153 91.1866 232.161 91.1866 232.168 91.1866L232.346 91.1933L232.419 91.1799C233.022 91.1799 233.949 91.44 234.067 91.5289C234.171 92.0491 234.158 92.6316 234.127 93.0539H230.354C230.319 92.6405 230.301 92.0802 230.385 91.609ZM230.234 95.8527C229.498 94.9213 230.212 94.121 230.294 94.0365L230.347 93.9832H234.135L234.189 94.0387C234.222 94.0721 235.007 94.8946 234.249 95.8527C233.644 96.6175 234.233 99.6119 235.963 106.194H235.438C235.151 105.081 233.853 104.26 232.241 104.26C230.63 104.26 229.329 105.078 229.042 106.194H228.522C230.25 99.6119 230.839 96.6175 230.234 95.8527ZM227.729 109.18C227.922 108.457 228.102 107.779 228.278 107.123H229.047C229.334 108.239 230.632 109.058 232.244 109.058C233.855 109.058 235.154 108.237 235.44 107.123H236.21C236.381 107.782 236.561 108.457 236.754 109.18C237.483 111.892 238.168 114.439 238.281 115.34H226.204C226.315 114.442 227 111.892 227.729 109.18ZM238.713 132.039C238.675 132.464 237.439 133.235 233.044 133.437L232.764 133.477C232.626 133.477 232.446 133.473 232.233 133.469C232.106 133.473 231.99 133.473 231.888 133.477L231.443 133.437C227.051 133.235 225.812 132.464 225.777 132.07C225.697 129.534 225.675 127.355 225.688 125.463H238.804C238.815 127.346 238.793 129.518 238.713 132.039Z" fill="#B73058"/>
<g filter="url(#filter1_d_1_681)">
<rect x="125" y="134" width="66.2453" height="49.8271" rx="4.91439" fill="url(#paint16_linear_1_681)"/>
<path d="M158.38 154.917L158.18 155.196L157.98 154.917C157.346 154.03 156.314 153.452 155.145 153.452C153.218 153.452 151.654 155.019 151.654 156.953C151.654 157.226 151.689 157.491 151.748 157.749L151.75 157.757L151.752 157.765C152 159.314 152.991 160.932 154.256 162.287C155.491 163.611 156.959 164.654 158.18 165.121C159.402 164.654 160.87 163.611 162.105 162.287C163.37 160.932 164.36 159.314 164.608 157.765L164.61 157.757L164.612 157.748C164.672 157.491 164.707 157.226 164.707 156.953C164.707 155.019 163.143 153.452 161.216 153.452C160.047 153.452 159.015 154.03 158.38 154.917Z" fill="white" stroke="url(#paint17_linear_1_681)" stroke-width="0.491439"/>
<path d="M126.2 135.995L152.823 155.619" stroke="white" stroke-opacity="0.6" stroke-width="0.528167"/>
<path d="M164.613 155.431L189.472 135.26" stroke="white" stroke-opacity="0.6" stroke-width="0.527189"/>
<path d="M126.288 182.014L154.243 161.609" stroke="white" stroke-opacity="0.6" stroke-width="0.55848"/>
<path d="M162.212 161.609L189.52 182.615" stroke="white" stroke-opacity="0.6" stroke-width="0.528167"/>
</g>
<defs>
<filter id="filter0_d_1_681" x="0" y="0" width="316" height="316" filterUnits="userSpaceOnUse" color-interpolation-filters="sRGB">
<feFlood flood-opacity="0" result="BackgroundImageFix"/>
<feColorMatrix in="SourceAlpha" type="matrix" values="0 0 0 0 0 0 0 0 0 0 0 0 0 0 0 0 0 0 127 0" result="hardAlpha"/>
<feOffset dy="4"/>
<feGaussianBlur stdDeviation="2"/>
<feColorMatrix type="matrix" values="0 0 0 0 0 0 0 0 0 0 0 0 0 0 0 0 0 0 0.25 0"/>
<feBlend mode="normal" in2="BackgroundImageFix" result="effect1_dropShadow_1_681"/>
<feBlend mode="normal" in="SourceGraphic" in2="effect1_dropShadow_1_681" result="shape"/>
</filter>
<filter id="filter1_d_1_681" x="123.034" y="134" width="70.1768" height="53.7586" filterUnits="userSpaceOnUse" color-interpolation-filters="sRGB">
<feFlood flood-opacity="0" result="BackgroundImageFix"/>
<feColorMatrix in="SourceAlpha" type="matrix" values="0 0 0 0 0 0 0 0 0 0 0 0 0 0 0 0 0 0 127 0" result="hardAlpha"/>
<feOffset dy="1.96576"/>
<feGaussianBlur stdDeviation="0.982878"/>
<feColorMatrix type="matrix" values="0 0 0 0 0 0 0 0 0 0 0 0 0 0 0 0 0 0 0.25 0"/>
<feBlend mode="normal" in2="BackgroundImageFix" result="effect1_dropShadow_1_681"/>
<feBlend mode="normal" in="SourceGraphic" in2="effect1_dropShadow_1_681" result="shape"/>
</filter>
<linearGradient id="paint0_linear_1_681" x1="71.5" y1="-15.5" x2="245" y2="287" gradientUnits="userSpaceOnUse">
<stop stop-color="#C4C4C4"/>
<stop offset="0.938276" stop-color="white"/>
</linearGradient>
<linearGradient id="paint1_linear_1_681" x1="195.188" y1="67.3972" x2="195.188" y2="53.8428" gradientUnits="userSpaceOnUse">
<stop stop-color="#B73058"/>
<stop offset="1" stop-color="#FF99AC"/>
</linearGradient>
<linearGradient id="paint2_linear_1_681" x1="158.069" y1="97.3782" x2="158.069" y2="83.8239" gradientUnits="userSpaceOnUse">
<stop stop-color="#B73058"/>
<stop offset="1" stop-color="#FF99AC"/>
</linearGradient>
<linearGradient id="paint3_linear_1_681" x1="255.864" y1="156.627" x2="255.864" y2="143.072" gradientUnits="userSpaceOnUse">
<stop stop-color="#B73058"/>
<stop offset="1" stop-color="#FF99AC"/>
</linearGradient>
<linearGradient id="paint4_linear_1_681" x1="195.188" y1="241.573" x2="195.188" y2="228.019" gradientUnits="userSpaceOnUse">
<stop stop-color="#B73058"/>
<stop offset="1" stop-color="#FF99AC"/>
</linearGradient>
<linearGradient id="paint5_linear_1_681" x1="74.5499" y1="104.517" x2="74.5499" y2="90.9622" gradientUnits="userSpaceOnUse">
<stop stop-color="#B73058"/>
<stop offset="1" stop-color="#FF99AC"/>
</linearGradient>
<linearGradient id="paint6_linear_1_681" x1="74.5499" y1="208.737" x2="74.5499" y2="195.182" gradientUnits="userSpaceOnUse">
<stop stop-color="#B73058"/>
<stop offset="1" stop-color="#FF99AC"/>
</linearGradient>
<linearGradient id="paint7_linear_1_681" x1="113.811" y1="67.3972" x2="113.811" y2="53.8428" gradientUnits="userSpaceOnUse">
<stop stop-color="#B73058"/>
<stop offset="1" stop-color="#FF99AC"/>
</linearGradient>
<linearGradient id="paint8_linear_1_681" x1="59.5593" y1="156.627" x2="59.5593" y2="143.072" gradientUnits="userSpaceOnUse">
<stop stop-color="#B73058"/>
<stop offset="1" stop-color="#FF99AC"/>
</linearGradient>
<linearGradient id="paint9_linear_1_681" x1="113.811" y1="241.573" x2="113.811" y2="228.019" gradientUnits="userSpaceOnUse">
<stop stop-color="#B73058"/>
<stop offset="1" stop-color="#FF99AC"/>
</linearGradient>
<linearGradient id="paint10_linear_1_681" x1="158.783" y1="263.702" x2="158.783" y2="250.148" gradientUnits="userSpaceOnUse">
<stop stop-color="#B73058"/>
<stop offset="1" stop-color="#FF99AC"/>
</linearGradient>
<linearGradient id="paint11_linear_1_681" x1="240.874" y1="208.737" x2="240.874" y2="195.182" gradientUnits="userSpaceOnUse">
<stop stop-color="#B73058"/>
<stop offset="1" stop-color="#FF99AC"/>
</linearGradient>
<linearGradient id="paint12_linear_1_681" x1="240.874" y1="104.517" x2="240.874" y2="90.9622" gradientUnits="userSpaceOnUse">
<stop stop-color="#B73058"/>
<stop offset="1" stop-color="#FF99AC"/>
</linearGradient>
<linearGradient id="paint13_linear_1_681" x1="75.2014" y1="217.311" x2="137.075" y2="282.27" gradientUnits="userSpaceOnUse">
<stop stop-color="white"/>
<stop offset="1" stop-color="#9CABC2" stop-opacity="0.35"/>
</linearGradient>
<linearGradient id="paint14_linear_1_681" x1="63.78" y1="31" x2="125.654" y2="95.9591" gradientUnits="userSpaceOnUse">
<stop stop-color="white"/>
<stop offset="1" stop-color="#9CABC2" stop-opacity="0.35"/>
</linearGradient>
<linearGradient id="paint15_linear_1_681" x1="215.827" y1="81.6824" x2="277.701" y2="146.642" gradientUnits="userSpaceOnUse">
<stop stop-color="white"/>
<stop offset="1" stop-color="#9CABC2" stop-opacity="0.35"/>
</linearGradient>
<linearGradient id="paint16_linear_1_681" x1="158.123" y1="134" x2="158.123" y2="183.827" gradientUnits="userSpaceOnUse">
<stop offset="0.315145" stop-color="#E06C88"/>
<stop offset="1" stop-color="#B73058"/>
</linearGradient>
<linearGradient id="paint17_linear_1_681" x1="158.18" y1="165.384" x2="158.18" y2="153.206" gradientUnits="userSpaceOnUse">
<stop stop-color="#B73058"/>
<stop offset="1" stop-color="#FF99AC"/>
</linearGradient>
</defs>
</svg>
